<svg version="1.0" xmlns="http://www.w3.org/2000/svg" width="346.667" height="346.667" viewBox="0 0 260 260"><path d="M71.5 62c-.2.3-.4 31.5-.4 69.3V200H121V69h9.8c11.9 0 19.6 1.3 28.1 4.6 20.7 8.1 30 24.3 26.5 46-2 13-10.9 24.1-24.1 30.1-5 2.3-7.3 2.8-17.3 3-12.3.4-14.8 1.3-13.5 5.2.7 2.2 3.8 3.4 9.4 3.5 1.9.1 3.7.7 4.1 1.6.5.8 3.2 6.4 6 12.4 8.4 17.6 18.1 25.5 32 26.2 8.3.4 13-1.4 13-5.1 0-3.3-2-4-7.6-2.6-7.2 1.8-14.4-.7-20.6-7.1-4.8-5-12.3-18.6-13.4-24.3-.5-2.8-.3-3.1 3.8-4.3 22.1-6.8 36.9-26.1 36.3-47.7-.4-11.9-2.5-18.3-9-27-7.6-10.2-19.5-17-35-20-7.3-1.4-77.2-2.7-78-1.5z"/></svg>